# xmcd
#
# Track frame offsets:
#	150
#	12835
#	27710
#	37487
#	49442
#	68778
#	84569
#	99012
#	113381
#	132638
#	147128
#	167321
#	183195
#	191629
#	203734
#	216079
#
# Disc length: 3128 seconds
#
# Revision: 1
# Processed by: cddbd v1.5.1PL2 Copyright (c) Steve Scherf et al.
# Submitted via: audiograbber 1.83.01
#
DISCID=df0c3610
DTITLE=Various Artist - De Country Gids-CD - 2 '98-'99
DYEAR=1900
DGENRE=
TTITLE0=Szabo, Jany - Sweet dreams
TTITLE1=Jong, Hans De - Piece of green
TTITLE2=Chuck Bill -  Belgian country singer
TTITLE3=Hayes, Helen - I try to think about Elvis
TTITLE4=Mack, Billy - It's not easy
TTITLE5=Tekielja - Marina
TTITLE6=Kaye, Jenny - Wagon wheels
TTITLE7=Cosmic Twins - Don't kiss like Jimi playes guitar
TTITLE8=Steel Horse - don't hurt me
TTITLE9=Louisiana Radio - Hip-y-tayo
TTITLE10=Silver Streak - Walkaway Joe
TTITLE11=Phoenix - The goodnight lovin'
TTITLE12=Ieven, Ben - Short dance
TTITLE13=Savannah - Baby's gotta hold on me
TTITLE14=Coincidence - Tequila sunrise
TTITLE15=Square Dance Caller Erik Pluylaar - Country boy
EXTD=
EXTT0=
EXTT1=
EXTT2=
EXTT3=
EXTT4=
EXTT5=
EXTT6=
EXTT7=
EXTT8=
EXTT9=
EXTT10=
EXTT11=
EXTT12=
EXTT13=
EXTT14=
EXTT15=
PLAYORDER=
